<?xml version="1.0" encoding="utf-8"?>
<!-- Generator: Adobe Illustrator 25.4.1, SVG Export Plug-In . SVG Version: 6.00 Build 0)  -->
<svg version="1.1" id="Layer_1" xmlns="http://www.w3.org/2000/svg" xmlns:xlink="http://www.w3.org/1999/xlink" x="0px" y="0px"
	 viewBox="0 0 107 30.2" style="enable-background:new 0 0 107 30.2;" xml:space="preserve">
<style type="text/css">
	.st0{fill:#2C3378;}
	.st1{fill:#FFFFFF;}
	.st2{fill:#FFD100;}
</style>
<g>
	<g>
		<path class="st0" d="M39.8,14.2C39.8,7.4,31.4,2,21,2c-0.1,0-0.2,0-0.2,0c-3.5,0-6.9,0.7-9.8,1.9c-5.2,2.1-8.8,5.8-9,10
			c0,0.1,0,0.2,0,0.4c0,0.1,0,0.1,0,0.2c0,0,0,0,0,0.1c0,0,0,0.1,0,0.1c0,0.1,0,0.2,0,0.3c0,0.1,0,0.2,0,0.3c0,0,0,0,0,0.1l0,0.1
			c0,0.1,0,0.2,0,0.3c0,0.1,0,0.2,0,0.3c0.2,3.4,2,6.4,5.2,8.7c3.4,2.4,8.1,3.7,13.5,3.7c0.1,0,0.2,0,0.3,0c5.6,0,10.3-1.4,13.8-3.9
			c3.3-2.4,5.1-5.7,5-9.3L39.8,14.2z"/>
		<path class="st1" d="M19,19.5c0.1,0,0.3-0.1,0.5-0.1c0.8,0,1.4,0.6,1.4,1.4c0,0.8-0.6,1.4-1.4,1.4c0,0,0,0,0,0
			c-0.7,0-1.3-0.6-1.4-1.3c0-0.3-0.2-0.4-0.3-0.4c0,0,0,0,0,0c-0.1,0-0.2,0.1-0.3,0.1c-0.2,0.2-0.4,0.3-0.6,0.3
			c-0.1,0-0.3,0-0.4-0.1c-0.8-0.3-0.8-0.9-0.7-1.1c0-0.1,0-0.2-0.1-0.3c-0.1-0.1-0.1-0.1-0.2-0.1c-0.1,0-0.2,0-0.2,0.1
			c-0.2,0.1-0.5,0.3-0.7,0.3c-0.1,0-0.2,0-0.4-0.1c-1.1-0.4-1-1.4-1-1.6c0-0.1,0-0.2-0.1-0.3c-0.1-0.1-0.2,0-0.3,0.1
			c-0.2,0.2-0.4,0.2-0.6,0.2c-0.6-0.1-1.1-0.5-1.1-1.1c0-0.3,0.1-0.5,0.3-0.7c0.2-0.2,0.5-0.3,0.7-0.3c0.6,0,0.9,0.3,1.1,0.8
			c0,0,0,0,0,0.1c0,0.1,0,0.2,0.1,0.2c0.1,0,0.2-0.1,0.2-0.2c0,0,0,0,0-0.1l0,0c0.2-0.3,0.4-0.5,1.2-0.5c0.1,0,0.3,0,0.5,0.1
			c0.4,0.1,0.7,0.5,0.7,1.1c0,0.2,0.1,0.3,0.3,0.3c0,0,0,0,0,0c0.1,0,0.2-0.1,0.2-0.1c0.2-0.2,0.4-0.4,0.8-0.4c0.2,0,0.4,0,0.6,0.1
			c1,0.4,0.5,1.7,0.5,1.7c-0.1,0.1-0.2,0.4,0.1,0.5l0,0l0.1,0C18.8,19.5,18.9,19.5,19,19.5L19,19.5z"/>
		<polygon class="st0" points="19,19.4 19,19.4 19,19.4 		"/>
		<path class="st1" d="M38.8,12.7c-3.7,0.9-6.6,2.1-7.7,2.6c-1.8-1.5-5.9-5.1-7-5.9c-0.7-0.5-1.1-0.7-1.5-0.9
			c-0.2-0.1-0.4-0.1-0.8-0.1c-0.3,0-0.6,0.1-0.9,0.2c-0.7,0.2-1.5,0.8-2.2,1.4l0,0c-0.6,0.5-1.3,1-1.8,1.2c-0.2,0.1-0.4,0.1-0.7,0.1
			c0,0,0,0,0,0c-0.5,0-1-0.1-1.2-0.3c0,0,0,0,0.1-0.1l1.6-1.7c1.2-1.2,2.3-2.4,5-2.5c0,0,0.1,0,0.1,0c1.6,0,3.3,0.7,3.5,0.8
			c1.6,0.8,3.2,1.1,4.9,1.1c1.7,0,3.4-0.4,5.2-1.3C37.1,8.9,38.3,10.7,38.8,12.7z"/>
		<path class="st2" d="M20.8,2.8c0.1,0,0.2,0,0.2,0c2.6,0,5.1,0.4,7.4,1c0.1,0,0.1,0,0.2,0c0.1,0,0.2,0.1,0.3,0.1
			c2.1,0.7,4,1.6,5.5,2.7c-1.5,0.7-3,1-4.4,1c0,0,0,0-0.1,0c-1.5,0-2.9-0.3-4.4-1c-0.1,0-1.9-0.9-3.8-0.9c0,0,0,0-0.1,0l-0.2,0
			c-2.3,0.1-3.5,0.9-4.4,1.6c-0.8,0-1.5,0.2-2.2,0.4c-0.6,0.2-1,0.3-1.5,0.3c-0.2,0-0.4,0-0.5,0l-0.1,0c-0.5,0-3.2-0.6-5.3-1.4
			C11,4.2,15.8,2.8,20.8,2.8z"/>
		<path class="st1" d="M6.7,7.3L6.7,7.3c2.4,1,5.2,1.6,6,1.7l0.2,0c0.2,0,0.4,0,0.6,0c0.6,0,1.2-0.2,1.8-0.3
			c0.2-0.1,0.5-0.1,0.7-0.2c0,0,0,0,0,0l-1.6,1.7c-0.1,0.1-0.4,0.5-0.2,1c0.1,0.2,0.2,0.4,0.5,0.5c0.4,0.3,1.1,0.4,1.8,0.4
			c0.2,0,0.5,0,0.7-0.1c0.7-0.2,1.4-0.7,2.2-1.3c0.6-0.5,1.4-1.1,2-1.2c0.2,0,0.4-0.1,0.5-0.1c0,0,0.1,0,0.1,0
			c0.4,0,0.8,0.2,1.5,0.7c1.3,0.9,6.6,5.5,7.2,6.1c0,0,0.3,0.3,0.3,0.8c0,0.3-0.2,0.5-0.4,0.7c-0.2,0.1-0.5,0.2-0.7,0.2c0,0,0,0,0,0
			c-0.3,0-0.6-0.2-0.6-0.2c0,0-0.1-0.1-0.1-0.1c-0.5-0.4-2-1.8-2.6-2.3c-0.1-0.1-0.3-0.2-0.4-0.2c-0.1,0-0.2,0-0.2,0.1
			c-0.1,0.2-0.1,0.4,0.2,0.6l2.3,2.3c0,0,0.3,0.2,0.3,0.5c0,0.3-0.1,0.6-0.5,0.9c-0.3,0.2-0.5,0.3-0.8,0.3c0,0,0,0,0,0
			c-0.3,0-0.5-0.1-0.6-0.2l-0.4-0.3c-0.6-0.6-1.2-1.2-1.7-1.6c-0.1-0.1-0.3-0.2-0.4-0.2c0,0,0,0,0,0c-0.1,0-0.2,0-0.2,0.1
			c-0.1,0.1-0.1,0.2,0,0.5c0.1,0.1,0.1,0.1,0.1,0.1l1.7,1.9c0.1,0.1,0.3,0.4,0,0.7L26,20.9c0,0.1-0.1,0.1-0.1,0.1
			c-0.3,0.2-0.6,0.2-0.8,0.2c-0.1,0-0.1,0-0.2,0c-0.2,0-0.3-0.1-0.3-0.1l-0.1-0.1c-0.7-0.7-1.2-1.2-1.5-1.4
			c-0.1-0.1-0.2-0.2-0.4-0.2c0,0,0,0,0,0c-0.1,0-0.2,0-0.2,0.1c-0.1,0.2-0.1,0.4,0.2,0.6l1.3,1.4c0,0,0,0,0,0c0,0-0.2,0.2-0.7,0.3
			c-0.1,0-0.1,0-0.2,0c-0.5,0-1-0.2-1.3-0.3c0.1-0.3,0.2-0.6,0.2-0.9c0-0.6-0.2-1.2-0.7-1.6c-0.4-0.4-1-0.6-1.6-0.7
			c0-0.6-0.1-1.6-1.2-2c-0.3-0.1-0.6-0.2-0.9-0.2c0,0,0,0,0,0c-0.2,0-0.4,0-0.6,0.1c-0.2-0.4-0.6-0.7-1.1-0.9
			c-0.3-0.1-0.5-0.1-0.8-0.1c-0.4,0-0.8,0.1-1.2,0.4c-0.4-0.4-0.9-0.6-1.4-0.6c0,0,0,0,0,0c-0.5,0-0.9,0.2-1.3,0.5
			c-0.5-0.4-2.4-1.5-7-2.5c-0.2,0-0.7-0.2-1-0.3C3.4,10.8,4.7,8.9,6.7,7.3z"/>
		<path class="st2" d="M38.9,14.9C38.9,15,38.9,15,38.9,14.9c0,0.2,0,0.3-0.1,0.5c-0.4,2.6-2.2,5.1-5.1,7c-3.4,2.2-7.9,3.5-12.8,3.5
			c-0.1,0-0.2,0-0.2,0c-9.9,0-17.9-5.1-17.9-11.4c0-0.2,0-0.4,0-0.7c0.2,0,0.9,0.2,1,0.2c4.6,1,6.3,2,6.7,2.3
			c-0.1,0.2-0.1,0.4-0.1,0.7c0,1.1,0.9,1.9,1.9,1.9c0.1,0,0.2,0,0.3,0c0.2,0.7,0.7,1.3,1.4,1.6c0.2,0.1,0.5,0.1,0.7,0.1
			c0.1,0,0.2,0,0.4,0c0.2,0.3,0.5,0.8,1.2,1c0.3,0.1,0.5,0.1,0.8,0.1c0.2,0,0.3,0,0.5-0.1c0.4,0.8,1.2,1.3,2.1,1.3c0,0,0,0,0,0
			c0.6,0,1.1-0.2,1.6-0.6c0.4,0.2,1.1,0.5,1.8,0.5c0.1,0,0.2,0,0.3,0c0.8-0.1,1.1-0.4,1.3-0.7c0,0,0,0,0-0.1c0.1,0,0.3,0.1,0.5,0.1
			c0.4,0,0.8-0.2,1.2-0.5c0.4-0.3,0.6-0.7,0.7-1c0.1,0,0.2,0,0.3,0c0.4,0,0.9-0.1,1.3-0.4c0.7-0.5,0.9-1.1,0.9-1.5
			c0.1,0,0.2,0,0.3,0c0.4,0,0.8-0.1,1.2-0.4c0.5-0.3,0.8-0.8,0.8-1.4c0-0.3,0-0.7-0.2-1c1.5-0.6,4.2-1.6,7.2-2.3c0,0.2,0,0.4,0,0.6
			C39,14.6,39,14.7,38.9,14.9z"/>
	</g>
	<g>
		<g>
			<path class="st0" d="M104,6.5c-0.7-0.9-1.7-1.3-3.1-1.3c-1.4,0-2.4,0.4-3.1,1.3c-0.7,0.9-1,1.9-1,3c0,1.2,0.3,2.2,1,3
				c0.7,0.8,1.7,1.3,3.1,1.3c1.4,0,2.4-0.4,3.1-1.3c0.7-0.8,1-1.9,1-3C105,8.4,104.7,7.3,104,6.5z M102.3,11.4
				c-0.3,0.4-0.8,0.7-1.4,0.7c-0.6,0-1.1-0.2-1.4-0.7c-0.3-0.4-0.5-1.1-0.5-1.9c0-0.8,0.2-1.4,0.5-1.9c0.3-0.4,0.8-0.7,1.4-0.7
				c0.6,0,1.1,0.2,1.4,0.7c0.3,0.4,0.5,1.1,0.5,1.9C102.8,10.3,102.6,10.9,102.3,11.4z"/>
			<path class="st0" d="M86.6,5.8c-0.7-0.4-1.5-0.5-2.4-0.5c-1.4,0-2.3,0.4-2.9,1.1c-0.4,0.5-0.6,1-0.6,1.7h2
				c0.1-0.3,0.2-0.6,0.3-0.7C83.3,7.1,83.6,7,84.1,7c0.5,0,0.8,0.1,1,0.2c0.2,0.1,0.3,0.4,0.3,0.7c0,0.3-0.2,0.5-0.5,0.6
				c-0.2,0.1-0.5,0.1-0.8,0.2l-0.7,0.1c-0.8,0.1-1.4,0.3-1.9,0.5c-0.8,0.4-1.2,1.2-1.2,2.2c0,0.8,0.2,1.4,0.7,1.8
				c0.5,0.4,1.1,0.6,1.8,0.6c4.6,0.2,4.6-2.4,4.6-3v-3C87.6,6.8,87.3,6.1,86.6,5.8z M85.5,10.4c0,0.7-0.2,1.2-0.6,1.5
				c-0.4,0.3-0.8,0.4-1.3,0.4c-0.3,0-0.5-0.1-0.7-0.2c-0.2-0.2-0.3-0.4-0.3-0.8c0-0.4,0.2-0.7,0.5-0.9c0.2-0.1,0.5-0.2,1-0.3
				l0.5-0.1c0.2,0,0.4-0.1,0.6-0.1c0.1-0.1,0.3-0.1,0.4-0.2V10.4z"/>
			<path class="st0" d="M76.1,7.1c0.5,0,0.9,0.2,1.2,0.5c0.2,0.2,0.3,0.5,0.3,0.8h2.3c-0.1-1.1-0.5-2-1.2-2.4
				c-0.7-0.5-1.6-0.7-2.6-0.7c-1.3,0-2.2,0.4-3,1.2C72.3,7.2,72,8.3,72,9.7c0,1.2,0.3,2.2,1,3c0.6,0.8,1.7,1.2,3,1.2
				c1.4,0,2.4-0.5,3.1-1.4c0.4-0.6,0.7-1.2,0.7-1.8h-2.3c0,0.4-0.2,0.8-0.4,1C76.9,11.9,76.5,12,76,12c-0.7,0-1.2-0.3-1.5-1
				c-0.1-0.4-0.2-0.8-0.2-1.4c0-0.6,0.1-1.1,0.2-1.5C74.8,7.4,75.3,7.1,76.1,7.1z"/>
			<path class="st0" d="M71.4,5.3c-4.7,0-4.4,4.1-4.4,4.1v4.2h2.1V9.7c0-0.6,0.1-1.1,0.2-1.4c0.3-0.6,0.9-0.8,1.7-0.8
				c0.1,0,0.1,0,0.3,0c0.1,0,0.2,0,0.4,0V5.3c-0.1,0-0.2,0-0.2,0C71.4,5.3,71.4,5.3,71.4,5.3z"/>
			<path class="st0" d="M63.6,11.4c-0.1,0.1-0.2,0.2-0.3,0.3c-0.3,0.2-0.7,0.3-1.2,0.3c-0.5,0-0.8-0.1-1.1-0.3
				c-0.5-0.3-0.8-0.9-0.9-1.7H66c0-0.7,0-1.2-0.1-1.6c-0.1-0.6-0.3-1.2-0.6-1.7c-0.4-0.5-0.8-0.9-1.4-1.2c-0.6-0.3-1.2-0.4-1.9-0.4
				c-1.2,0-2.1,0.4-2.9,1.1C58.3,7.1,58,8.2,58,9.6c0,1.5,0.4,2.6,1.2,3.2c0.8,0.7,1.8,1,2.8,1c1.3,0,2.3-0.4,3-1.2
				c0.4-0.4,0.6-0.8,0.7-1.2H63.6z M60.7,7.5C61,7.2,61.4,7,62,7c0.5,0,0.9,0.1,1.3,0.4c0.3,0.3,0.5,0.7,0.6,1.3h-3.6
				C60.2,8.2,60.4,7.8,60.7,7.5z"/>
			<g>
				<path class="st0" d="M57.1,13.6h-1.9V8.7c0-0.4-0.1-1.5-1.4-1.5c-0.9,0-1.5,0.6-1.5,1.5v4.9h-1.9V8.7c0-0.4-0.1-1.5-1.4-1.5
					c-0.9,0-1.5,0.6-1.5,1.5v4.9h-1.9V8.8c0-2,1.3-3.5,3.4-3.5c1,0,1.9,0.4,2.4,1.1c0.6-0.7,1.4-1.1,2.4-1.1c2.1,0,3.4,1.5,3.4,3.5
					V13.6z"/>
			</g>
			<path class="st0" d="M96.1,2.7c0,0-2.1-0.2-2.1,1.5l0,2.3c-0.2-0.4-0.5-0.7-0.9-0.9c-0.4-0.2-0.8-0.3-1.3-0.3
				c-1.1,0-1.9,0.4-2.5,1.2c-0.6,0.8-1,1.9-1,3.3c0,1.2,0.3,2.2,1,2.9c0.6,0.8,1.9,1.1,3,1.1c3.9,0,3.9-3.4,3.9-3.4L96.1,2.7z
				 M93.6,11.4c-0.3,0.4-0.8,0.7-1.4,0.7c-0.6,0-1-0.2-1.3-0.7c-0.3-0.4-0.4-1.1-0.4-1.8c0-0.7,0.1-1.3,0.4-1.7
				c0.3-0.5,0.7-0.7,1.4-0.7c0.4,0,0.8,0.1,1.1,0.4c0.5,0.4,0.7,1.2,0.7,2.2C94.1,10.4,93.9,11,93.6,11.4z"/>
		</g>
		<g>
			<path class="st0" d="M71.8,23.8c-0.1,0.1-0.2,0.2-0.3,0.3c-0.3,0.2-0.7,0.3-1.2,0.3c-0.4,0-0.8-0.1-1.1-0.3
				c-0.5-0.3-0.8-0.9-0.8-1.7h5.8c0-0.7,0-1.2-0.1-1.6c-0.1-0.6-0.3-1.2-0.6-1.7c-0.4-0.5-0.8-0.9-1.4-1.2c-0.6-0.2-1.2-0.4-1.9-0.4
				c-1.2,0-2.1,0.4-2.9,1.1c-0.7,0.7-1.1,1.8-1.1,3.2c0,1.5,0.4,2.5,1.2,3.2c0.8,0.7,1.8,1,2.8,1c1.3,0,2.3-0.4,3-1.2
				c0.4-0.4,0.6-0.8,0.7-1.2H71.8z M69,19.9c0.3-0.3,0.7-0.5,1.2-0.5c0.5,0,0.9,0.1,1.2,0.4c0.3,0.3,0.5,0.7,0.6,1.3h-3.6
				C68.5,20.6,68.7,20.2,69,19.9z"/>
			<path class="st0" d="M57.2,17.7c-0.5,0-0.9,0.1-1.3,0.3c-0.4,0.2-0.7,0.5-0.9,0.9v-3.8c0,0-2.1-0.2-2.1,1.5c0,1.5,0,6.2,0,6.2
				s0,3.4,3.9,3.4c1.1,0,2.4-0.3,3-1.1c0.6-0.8,1-1.7,1-2.9c0-1.4-0.3-2.5-1-3.2C59.1,18.1,58.3,17.7,57.2,17.7z M58.1,23.8
				c-0.3,0.4-0.7,0.7-1.3,0.7c-0.6,0-1.1-0.2-1.4-0.7c-0.3-0.4-0.5-1-0.5-1.7c0-1,0.2-1.7,0.7-2.1c0.3-0.3,0.7-0.4,1.1-0.4
				c0.6,0,1.1,0.2,1.4,0.7c0.3,0.5,0.4,1,0.4,1.7C58.5,22.7,58.4,23.3,58.1,23.8z"/>
			<path class="st0" d="M65.8,17.7C65.8,17.7,65.8,17.7,65.8,17.7c-4.8,0-4.5,4.1-4.5,4.1V26h2.1v-3.9c0-0.6,0.1-1.1,0.2-1.4
				c0.3-0.6,0.9-0.8,1.7-0.8c0.1,0,0.1,0,0.3,0c0.1,0,0.2,0,0.4,0v-2.2C65.9,17.7,65.9,17.7,65.8,17.7z"/>
			<path class="st0" d="M45.5,16.6c0,1.6,0,9.3,0,9.3h2V15.1C47.5,15.1,45.5,15,45.5,16.6z"/>
			<g>
				<rect x="49.1" y="15.1" class="st0" width="2.1" height="2.1"/>
				<rect x="49.1" y="17.9" class="st0" width="2.1" height="8.1"/>
			</g>
		</g>
	</g>
</g>
</svg>
