<?xml version="1.0" encoding="utf-8"?>
<!-- Generator: Adobe Illustrator 25.4.1, SVG Export Plug-In . SVG Version: 6.00 Build 0)  -->
<svg version="1.1" id="Layer_1" xmlns="http://www.w3.org/2000/svg" xmlns:xlink="http://www.w3.org/1999/xlink" x="0px" y="0px"
	 viewBox="0 0 163.9 42.6" style="enable-background:new 0 0 163.9 42.6;" xml:space="preserve">
<style type="text/css">
	.st0{fill:#41B7E9;}
	.st1{fill:#FFFFFF;}
	.st2{fill:#2A2874;}
</style>
<g>
	<path class="st0" d="M38.1,4C24.3,4,13,11.2,13,20.1c0,8.9,11.2,16.8,25.1,16.8c13.9,0,25.1-7.9,25.1-16.8C63.2,11.2,52,4,38.1,4z"
		/>
	<path class="st1" d="M29.9,15.1c0,0-0.3,0.3-0.1,0.5c0.4,0.5,1.6,0.8,2.8,0.5c0.7-0.2,1.6-0.9,2.5-1.6c1-0.8,1.9-1.5,2.9-1.9
		c1-0.3,1.7-0.2,2.1-0.1c0.5,0.1,1,0.5,1.9,1.1c1.7,1.3,8.5,7.2,9.6,8.2c0.9-0.4,5.4-2.2,11.1-3.5c-0.5-3-2.3-5.9-5.1-8.2
		c-3.9,1.6-9,2.6-13.6,0.3c0,0-2.5-1.2-5-1.1c-3.7,0.1-5.3,1.7-7,3.4L29.9,15.1z"/>
	<path class="st1" d="M51.5,22.6c-0.1-0.1-8-7-9.7-8.3c-1-0.8-1.6-1-2.2-1c-0.3,0-0.7,0-1.1,0.1c-0.8,0.2-1.9,1-2.9,1.7
		c-1,0.8-1.9,1.5-2.8,1.7c-1.1,0.3-2.5,0-3.1-0.5c-0.3-0.2-0.4-0.4-0.5-0.6c-0.2-0.5,0.2-1,0.3-1l2.2-2.4c0.3-0.3,0.5-0.5,0.8-0.8
		c-0.7,0.1-1.4,0.3-2,0.4c-0.8,0.2-1.5,0.4-2.3,0.4c-0.3,0-2-0.3-2.4-0.4c-2-0.5-4.2-1.1-6.8-2.3c-3.1,2.3-5.1,5.1-5.7,8.3
		c0.4,0.1,1.6,0.4,1.9,0.4c7,1.6,9.2,3.2,9.6,3.5c0.4-0.5,1-0.8,1.7-0.8c0.8,0,1.5,0.4,1.9,1c0.4-0.3,1-0.6,1.7-0.6
		c0.3,0,0.7,0.1,1,0.2c0.8,0.3,1.2,0.8,1.4,1.3c0.3-0.1,0.6-0.2,1-0.2c0.4,0,0.8,0.1,1.2,0.3c1.3,0.6,1.5,1.8,1.4,2.8
		c0.1,0,0.2,0,0.3,0c1.5,0,2.8,1.2,2.8,2.8c0,0.5-0.1,0.9-0.3,1.3c0.4,0.2,1.5,0.8,2.4,0.6c0.7-0.1,1-0.3,1.1-0.5
		c0.1-0.1,0.1-0.2,0.1-0.3l-2-2.2c0,0-0.3-0.3-0.2-0.4c0.1-0.1,0.3,0.1,0.5,0.2c1,0.8,2.2,2.1,2.2,2.1c0,0,0.1,0.2,0.6,0.3
		c0.4,0.1,1.1,0,1.6-0.4c0.1-0.1,0.2-0.2,0.3-0.4c0,0,0,0,0,0c0.5-0.6-0.1-1.3-0.1-1.3l-2.3-2.6c0,0-0.3-0.3-0.2-0.4
		c0.1-0.1,0.3,0.1,0.5,0.2c0.7,0.6,1.8,1.6,2.7,2.6c0.2,0.1,1.1,0.7,2.2-0.1c0.7-0.5,0.8-1,0.8-1.4c0-0.6-0.5-1-0.5-1l-3.1-3.2
		c0,0-0.3-0.3-0.2-0.4c0.1-0.1,0.3,0.1,0.5,0.2c1,0.8,3.7,3.3,3.7,3.3c0,0,1,0.7,2.1,0c0.4-0.3,0.7-0.7,0.7-1.1
		C52.1,23,51.5,22.6,51.5,22.6z"/>
	<path class="st1" d="M36.2,26.6c-0.5,0-1,0.3-1.1,0.2c0,0,0-0.2,0.1-0.3c0-0.1,0.7-2-0.9-2.7c-1.2-0.5-1.9,0.1-2.2,0.3
		c-0.1,0.1-0.1,0.1-0.1,0c0-0.3-0.2-1.3-1.2-1.6c-1.5-0.5-2.4,0.6-2.7,1c-0.1-0.8-0.8-1.5-1.7-1.5c-0.9,0-1.7,0.8-1.7,1.7
		c0,0.9,0.8,1.7,1.7,1.7c0.5,0,0.9-0.2,1.2-0.5c0,0,0,0,0,0.1c-0.1,0.4-0.2,2,1.4,2.6c0.6,0.3,1.2,0.1,1.7-0.3
		c0.1-0.1,0.2-0.1,0.1,0.1c-0.1,0.4,0,1.2,1.2,1.7c0.9,0.4,1.4,0,1.8-0.3c0.2-0.1,0.2-0.1,0.2,0.1c0,1.1,1,2.1,2.2,2.1
		c1.2,0,2.2-1,2.2-2.2C38.4,27.5,37.4,26.6,36.2,26.6z"/>
	<path class="st2" d="M38.1,3.4c-14.1,0-25.6,7.5-25.6,16.7c0,0.2,0,0.9,0,1c0,9.8,10,17.7,25.6,17.7c15.7,0,25.6-7.9,25.6-17.7
		c0-0.3,0-0.5,0-1C63.7,10.9,52.2,3.4,38.1,3.4z M62.5,18.2c-5.6,1.2-9.7,3-10.7,3.5c-2.4-2.1-8-7-9.6-8.1c-0.9-0.7-1.5-1-2-1.2
		c-0.2-0.1-0.6-0.2-1-0.2c-0.4,0-0.8,0.1-1.2,0.2c-1,0.3-2,1.1-2.9,1.8l0,0c-0.9,0.7-1.8,1.4-2.5,1.6c-0.3,0.1-0.6,0.1-0.9,0.1
		c-0.8,0-1.5-0.2-1.7-0.6c0-0.1,0-0.1,0.1-0.3l0,0l2.1-2.3c1.7-1.7,3.3-3.3,6.9-3.3c0.1,0,0.1,0,0.2,0c2.3,0,4.5,1,4.8,1.1
		c2.1,1,4.3,1.6,6.5,1.6c2.3,0,4.7-0.6,7.1-1.7C60.3,12.7,62,15.4,62.5,18.2z M38.1,4.3c7.5,0,14.2,2.1,18.7,5.5
		c-2.2,0.9-4.3,1.4-6.3,1.4c-2.1,0-4.1-0.5-6.1-1.5c-0.1-0.1-2.6-1.2-5.2-1.2c-0.1,0-0.1,0-0.2,0c-3.1,0.1-4.8,1.2-5.9,2.1
		c-1.1,0-2.1,0.3-3,0.5c-0.8,0.2-1.4,0.4-2.1,0.4c-0.3,0-0.7,0-0.8,0c-0.7,0-4.5-0.9-7.5-2.1C24.3,6.4,30.9,4.3,38.1,4.3z
		 M18.9,10.2c3.1,1.3,6.9,2.3,8.1,2.3c0.3,0,0.7,0.1,1,0.1c0.8,0,1.6-0.2,2.4-0.4c0.5-0.1,1-0.3,1.5-0.4c-0.1,0.1-0.3,0.3-0.4,0.4
		l-2.2,2.3c-0.2,0.2-0.5,0.6-0.3,1.2c0.1,0.2,0.3,0.4,0.6,0.6c0.5,0.3,1.4,0.6,2.3,0.6c0.3,0,0.6,0,0.9-0.1c0.9-0.2,1.9-1,2.9-1.8
		c0.8-0.6,1.9-1.5,2.8-1.7c0.2-0.1,0.5-0.1,0.8-0.1c0.1,0,0.1,0,0.2,0c0.6,0.1,1.1,0.3,2.1,1c1.8,1.3,9.7,8.2,9.7,8.3
		c0,0,0.5,0.4,0.5,1.2c0,0.4-0.2,0.8-0.6,1c-0.3,0.2-0.7,0.3-1,0.3c-0.5,0-0.9-0.2-0.9-0.3c0,0-2.7-2.5-3.7-3.3
		c-0.2-0.1-0.3-0.2-0.5-0.2c-0.1,0-0.2,0-0.2,0.1c-0.2,0.2,0,0.5,0.2,0.6l3.2,3.2c0,0,0.4,0.4,0.4,0.9c0,0.5-0.2,1-0.7,1.3
		c-0.4,0.2-0.7,0.4-1.1,0.4c-0.5,0-0.8-0.2-0.9-0.3L45.5,27c-0.8-0.8-1.7-1.7-2.3-2.2c-0.2-0.1-0.3-0.2-0.5-0.2
		c-0.1,0-0.1,0-0.2,0.1c-0.1,0.1-0.1,0.2,0.1,0.5c0.1,0.1,0.2,0.2,0.2,0.2l2.3,2.6c0,0,0.5,0.6,0.1,1.1L45,29.1
		c-0.1,0.1-0.1,0.1-0.2,0.2c-0.4,0.3-0.9,0.4-1.1,0.4c-0.1,0-0.2,0-0.3,0c-0.2,0-0.4-0.1-0.5-0.2l0,0c-0.1-0.1-1.3-1.3-2.2-2.1
		c-0.1-0.1-0.3-0.2-0.4-0.2c-0.1,0-0.2,0-0.2,0.1c-0.2,0.2,0.1,0.5,0.2,0.6l2,2.2c0,0,0,0.1-0.1,0.1c-0.1,0.1-0.3,0.3-1,0.4
		c-0.1,0-0.2,0-0.3,0c-0.7,0-1.5-0.4-1.9-0.6c0.2-0.4,0.3-0.8,0.3-1.2c0-1.6-1.3-2.9-2.9-2.9c0,0-0.1,0-0.1,0
		c0.1-0.7-0.1-2.1-1.5-2.7c-0.4-0.2-0.8-0.3-1.2-0.3c-0.3,0-0.6,0.1-0.9,0.2c-0.3-0.6-0.8-1-1.4-1.2c-0.4-0.1-0.7-0.2-1.1-0.2
		c-0.6,0-1.1,0.2-1.6,0.5c-0.5-0.6-1.2-0.9-1.9-0.9c-0.7,0-1.3,0.3-1.7,0.7c-0.6-0.5-3-2-9.5-3.5c-0.3-0.1-1-0.3-1.5-0.4
		C14.4,15.1,16.2,12.4,18.9,10.2z M31,27.1L31,27.1L30.8,27c-0.1,0-0.1,0-0.2,0.1c-0.3,0.2-0.6,0.3-1,0.3c-0.2,0-0.4,0-0.5-0.1
		c-1.5-0.6-1.4-2-1.3-2.4c0-0.1,0-0.2-0.1-0.2l-0.1-0.1l-0.1,0.1c-0.3,0.3-0.7,0.4-1.1,0.4c-0.9,0-1.6-0.7-1.6-1.6
		c0-0.9,0.7-1.6,1.6-1.6c0.8,0,1.4,0.6,1.5,1.4l0.1,0.4l0.2-0.4c0,0,0.7-1,1.8-1c0.2,0,0.4,0,0.7,0.1c0.9,0.3,1.1,1.1,1.1,1.5
		c0,0.2,0.2,0.2,0.2,0.2c0.1,0,0.1-0.1,0.2-0.1c0.2-0.2,0.6-0.5,1.1-0.5c0.3,0,0.6,0.1,0.9,0.2c1.5,0.6,0.8,2.5,0.8,2.5
		c-0.1,0.3-0.1,0.4,0,0.5l0.1,0h0c0.1,0,0.1,0,0.3-0.1c0.2-0.1,0.5-0.2,0.8-0.2h0c1.1,0,2,0.9,2,2c0,1.1-0.9,2-2,2
		c-1.1,0-2-0.8-2-1.9c0-0.1,0-0.3-0.2-0.3c-0.1,0-0.2,0.1-0.2,0.1c-0.2,0.2-0.5,0.4-1,0.4c-0.2,0-0.4,0-0.6-0.1
		C31,28.4,31,27.7,31,27.3C31,27.3,31,27.2,31,27.1z M38.1,35.8c-13.6,0-24.6-7-24.6-15.7c0-0.3,0-0.7,0.1-1c0.1,0,1.2,0.3,1.4,0.3
		c6.6,1.5,8.8,3,9.2,3.3C24,23,24,23.3,24,23.6c0,1.4,1.1,2.5,2.5,2.5c0.2,0,0.3,0,0.5,0c0.2,1,0.9,1.8,1.9,2.2
		c0.3,0.1,0.6,0.2,0.9,0.2c0.2,0,0.4,0,0.6-0.1c0.2,0.5,0.6,1.1,1.5,1.4c0.3,0.1,0.7,0.2,1,0.2c0.3,0,0.5,0,0.8-0.1
		c0.4,1.1,1.5,1.8,2.7,1.8c0.8,0,1.5-0.3,2.1-0.9c0.5,0.3,1.5,0.7,2.5,0.7c0.1,0,0.3,0,0.4,0c1-0.1,1.5-0.5,1.7-0.8
		c0-0.1,0.1-0.1,0.1-0.2c0.2,0.1,0.5,0.1,0.8,0.1c0.5,0,1.1-0.2,1.6-0.6c0.5-0.4,0.9-0.9,0.9-1.4c0,0,0,0,0,0c0.2,0,0.4,0.1,0.5,0.1
		c0.6,0,1.1-0.2,1.6-0.5c1-0.7,1.2-1.5,1.2-2.1c0.2,0,0.4,0.1,0.5,0.1c0.5,0,1-0.2,1.5-0.5c0.6-0.4,1-1,1.1-1.7c0-0.5-0.1-1-0.3-1.4
		c1.7-0.7,5.6-2.2,10.2-3.2c0,0.3,0,0.5,0,0.8C62.7,28.8,51.7,35.8,38.1,35.8z"/>
	<g>
		<path class="st2" d="M150,8.4c-0.9-1.2-2.3-1.7-4.2-1.7c-1.9,0-3.3,0.6-4.2,1.7c-0.9,1.2-1.4,2.5-1.4,4.1c0,1.6,0.5,3,1.4,4.1
			c0.9,1.1,2.3,1.7,4.2,1.7c1.9,0,3.3-0.6,4.2-1.7c0.9-1.1,1.4-2.5,1.4-4.1C151.4,10.9,150.9,9.6,150,8.4 M147.7,15.1
			c-0.5,0.6-1.1,0.9-1.9,0.9c-0.8,0-1.5-0.3-1.9-0.9c-0.5-0.6-0.7-1.4-0.7-2.6c0-1.1,0.2-2,0.7-2.5c0.5-0.6,1.1-0.9,1.9-0.9
			c0.8,0,1.5,0.3,1.9,0.9c0.5,0.6,0.7,1.4,0.7,2.5C148.4,13.6,148.1,14.5,147.7,15.1"/>
		<path class="st2" d="M126.2,7.4c-0.9-0.5-2-0.7-3.2-0.7c-1.9,0-3.2,0.5-3.9,1.5c-0.5,0.6-0.8,1.4-0.8,2.4h2.8
			c0.1-0.4,0.2-0.8,0.4-1c0.3-0.3,0.8-0.5,1.5-0.5c0.6,0,1.1,0.1,1.4,0.3c0.3,0.2,0.5,0.5,0.5,0.9c0,0.4-0.2,0.6-0.6,0.8
			c-0.2,0.1-0.6,0.2-1.2,0.3l-1,0.1c-1.1,0.1-2,0.4-2.6,0.7c-1.1,0.6-1.6,1.6-1.6,2.9c0,1,0.3,1.9,1,2.4c0.7,0.6,1.5,0.8,2.5,0.9
			c6.3,0.3,6.2-3.3,6.3-4.1v-4.1C127.7,8.8,127.2,7.9,126.2,7.4 M124.8,13.7c0,1-0.3,1.6-0.8,2c-0.5,0.4-1.1,0.5-1.7,0.5
			c-0.4,0-0.7-0.1-1-0.3c-0.3-0.2-0.4-0.6-0.4-1.1c0-0.6,0.2-1,0.7-1.2c0.3-0.2,0.7-0.3,1.3-0.4l0.7-0.1c0.3-0.1,0.6-0.1,0.8-0.2
			c0.2-0.1,0.4-0.2,0.6-0.3V13.7z"/>
		<path class="st2" d="M111.9,9.2c0.7,0,1.2,0.2,1.6,0.7c0.2,0.3,0.4,0.7,0.4,1.1h3.1c-0.2-1.6-0.7-2.7-1.6-3.3
			c-0.9-0.6-2.1-0.9-3.6-0.9c-1.7,0-3.1,0.5-4,1.6c-1,1.1-1.5,2.5-1.5,4.4c0,1.7,0.4,3,1.3,4.1c0.9,1,2.3,1.6,4.1,1.6
			c1.9,0,3.3-0.6,4.2-1.9c0.6-0.8,0.9-1.6,1-2.5h-3.1c-0.1,0.6-0.2,1.1-0.5,1.4c-0.3,0.4-0.8,0.5-1.5,0.5c-1,0-1.7-0.5-2-1.4
			c-0.2-0.5-0.3-1.1-0.3-1.9c0-0.8,0.1-1.5,0.3-2C110.2,9.7,110.9,9.2,111.9,9.2"/>
		<path class="st2" d="M105.5,6.8c-6.4,0-6,5.7-6,5.7v5.7h2.9v-5.4c0-0.9,0.1-1.5,0.3-2c0.4-0.8,1.2-1.1,2.3-1.1c0.1,0,0.2,0,0.3,0
			c0.1,0,0.3,0,0.5,0V6.8c-0.1,0-0.2,0-0.2,0C105.6,6.8,105.5,6.8,105.5,6.8"/>
		<path class="st2" d="M94.8,15.1c-0.1,0.2-0.3,0.3-0.4,0.4c-0.4,0.3-1,0.4-1.6,0.4c-0.6,0-1.1-0.1-1.5-0.4
			c-0.7-0.4-1.1-1.2-1.2-2.3h8c0-1,0-1.7-0.1-2.2c-0.1-0.9-0.4-1.6-0.9-2.3c-0.5-0.7-1.1-1.3-1.9-1.6c-0.8-0.3-1.6-0.5-2.6-0.5
			c-1.6,0-2.9,0.5-3.9,1.5c-1,1-1.5,2.5-1.5,4.4c0,2,0.6,3.5,1.7,4.4c1.1,0.9,2.4,1.4,3.9,1.4c1.8,0,3.2-0.5,4.1-1.6
			c0.5-0.6,0.9-1.1,1-1.7H94.8z M90.9,9.8c0.4-0.4,1-0.6,1.7-0.6c0.7,0,1.2,0.2,1.7,0.6c0.5,0.4,0.7,1,0.8,1.7h-5
			C90.3,10.7,90.5,10.2,90.9,9.8"/>
		<path class="st2" d="M86,18.1h-2.6v-6.7c0-0.6-0.2-2.1-1.9-2.1c-1.2,0-2,0.8-2,2.1v6.7h-2.6v-6.7c0-0.6-0.2-2.1-1.9-2.1
			c-1.2,0-2,0.8-2,2.1v6.7h-2.6v-6.6c0-2.8,1.8-4.8,4.7-4.8c1.4,0,2.5,0.6,3.3,1.5c0.8-0.9,1.9-1.5,3.3-1.5c2.9,0,4.6,2,4.6,4.8
			V18.1z"/>
		<path class="st2" d="M139.3,3.3c0,0-2.9-0.3-2.9,2l0,3.1c-0.3-0.5-0.7-0.9-1.3-1.2c-0.5-0.3-1.1-0.4-1.8-0.4
			c-1.4,0-2.6,0.5-3.5,1.6c-0.9,1.1-1.3,2.6-1.3,4.5c0,1.6,0.4,3,1.3,4c0.9,1,2.6,1.5,4.1,1.5c5.3,0,5.3-4.6,5.3-4.6L139.3,3.3z
			 M135.8,15.1c-0.4,0.6-1,0.9-1.9,0.9c-0.8,0-1.4-0.3-1.8-0.9c-0.4-0.6-0.6-1.5-0.6-2.5c0-0.9,0.2-1.7,0.6-2.4s1-1,1.9-1
			c0.6,0,1,0.2,1.5,0.5c0.7,0.6,1,1.6,1,3C136.4,13.7,136.2,14.5,135.8,15.1"/>
	</g>
	<g>
		<path class="st2" d="M73.1,37c0,0.4-0.2,0.8-0.5,1c-0.3,0.3-0.7,0.4-1,0.4h-1.4V28.3c0-2,0.7-3.2,1.7-4c0.8-0.6,2-1.2,4.4-1.1
			c1.2,0.1,2.4,0.6,3.2,1.5c1,1.2,1.4,2.5,1.4,4.2c0,1.8-0.4,3.2-1.3,4.3c-0.9,1.1-1.9,1.6-3.3,1.6c-0.7,0-1.3-0.1-1.9-0.4
			c-0.6-0.3-1-0.7-1.4-1.3V37z M78,29.1c0-1.1-0.2-1.9-0.6-2.5c-0.4-0.6-1-0.9-1.8-0.9c-0.8,0-1.4,0.3-1.8,0.9
			c-0.4,0.5-0.6,1.4-0.6,2.5c0,1.1,0.2,1.9,0.6,2.4c0.4,0.6,1,0.9,1.8,0.9c0.7,0,1.3-0.3,1.7-0.9C77.7,30.9,78,30.2,78,29.1"/>
		<path class="st2" d="M100.1,34v-0.7c-0.5,0.8-1.2,1.3-2,1.5c-0.9,0.2-1.7,0.1-2.5-0.2c-0.8-0.3-1.6-1-2.2-1.9
			c-0.6-0.9-0.9-2.1-0.9-3.6c0-1.7,0.4-3.1,1.2-4.2c0.8-1.1,2.1-1.6,3.8-1.6c1.7,0,2.7,0.3,3.7,1.1c1.1,0.8,1.7,2.1,1.7,4v5.9
			c0,1.9-1.3,5.4-5.4,5.1c-2.6-0.2-4-1.2-4.8-3.6h3.1c0.2,0.4,0.6,0.7,1,0.9c0.5,0.2,0.9,0.3,1.4,0.2c0.5-0.1,0.9-0.4,1.3-0.8
			C99.8,35.5,100,34.9,100.1,34 M95.3,29.1c0,1.9,0.6,3,1.7,3.2c1.1,0.2,1.9-0.1,2.5-0.8c0.3-0.3,0.4-0.8,0.5-1.4
			c0.1-0.7,0.1-1.3,0-2c-0.1-0.6-0.3-1.2-0.7-1.7c-0.4-0.5-0.9-0.8-1.6-0.8c-0.9,0-1.6,0.4-1.9,1C95.5,27.4,95.3,28.2,95.3,29.1"/>
		<path class="st2" d="M90,24c-0.9-0.5-2-0.7-3.2-0.7c-1.9,0-3.2,0.5-3.9,1.5c-0.5,0.6-0.8,1.4-0.8,2.4h2.8c0.1-0.4,0.2-0.8,0.4-1
			c0.3-0.3,0.8-0.5,1.5-0.5c0.6,0,1.1,0.1,1.4,0.3c0.3,0.2,0.5,0.5,0.5,0.9c0,0.4-0.2,0.6-0.6,0.8c-0.2,0.1-0.6,0.2-1.2,0.3l-1,0.1
			c-1.1,0.1-2,0.4-2.6,0.7c-1.1,0.6-1.6,1.6-1.6,2.9c0,1,0.3,1.9,1,2.4c0.7,0.6,1.5,0.8,2.5,0.9c6.3,0.3,6.2-3.3,6.3-4.1v-4.1
			C91.4,25.4,90.9,24.5,90,24 M88.5,30.3c0,1-0.3,1.6-0.8,2c-0.5,0.4-1.1,0.5-1.7,0.5c-0.4,0-0.7-0.1-1-0.3
			c-0.3-0.2-0.4-0.6-0.4-1.1c0-0.6,0.2-1,0.7-1.2c0.3-0.2,0.7-0.3,1.3-0.4l0.7-0.1c0.3-0.1,0.6-0.1,0.8-0.2c0.2-0.1,0.4-0.2,0.6-0.3
			V30.3z"/>
		<path class="st2" d="M113.9,24.9c-0.9-1.2-2.3-1.7-4.2-1.7c-1.9,0-3.3,0.6-4.2,1.7c-0.9,1.2-1.4,2.5-1.4,4.1c0,1.6,0.5,3,1.4,4.1
			c0.9,1.1,2.3,1.7,4.2,1.7c1.9,0,3.3-0.6,4.2-1.7c0.9-1.1,1.4-2.5,1.4-4.1C115.3,27.5,114.8,26.1,113.9,24.9 M111.6,31.6
			c-0.4,0.6-1.1,0.9-1.9,0.9c-0.8,0-1.5-0.3-1.9-0.9c-0.5-0.6-0.7-1.4-0.7-2.5c0-1.1,0.2-2,0.7-2.5c0.5-0.6,1.1-0.9,1.9-0.9
			c0.8,0,1.5,0.3,1.9,0.9c0.5,0.6,0.7,1.4,0.7,2.5C112.3,30.2,112,31,111.6,31.6"/>
	</g>
</g>
</svg>
